<svg width="200" height="260" viewBox="0 0 200 260" fill="none" xmlns="http://www.w3.org/2000/svg">
  <rect width="200" height="260" fill="white"/>
  <rect x="8" y="8" width="184" height="244" stroke="#1e293b" stroke-width="1.5" fill="none"/>
  <rect x="8" y="8" width="184" height="30" fill="#1e293b"/>
  <text x="100" y="28" text-anchor="middle" fill="white" font-size="9" font-weight="600">INVOICE</text>
  <rect x="12" y="44" width="86" height="3" rx="1" fill="#cbd5e1"/>
  <rect x="12" y="50" width="60" height="2" rx="1" fill="#e2e8f0"/>
  <rect x="110" y="44" width="78" height="3" rx="1" fill="#cbd5e1"/>
  <rect x="110" y="50" width="50" height="2" rx="1" fill="#e2e8f0"/>
  <line x1="8" y1="60" x2="192" y2="60" stroke="#1e293b" stroke-width="0.5"/>
  <rect x="8" y="62" width="184" height="12" fill="#f1f5f9"/>
  <line x1="8" y1="74" x2="192" y2="74" stroke="#cbd5e1" stroke-width="0.5"/>
  <rect x="12" y="78" width="100" height="2" rx="1" fill="#e2e8f0"/>
  <rect x="160" y="78" width="28" height="2" rx="1" fill="#1e293b"/>
  <line x1="8" y1="84" x2="192" y2="84" stroke="#e2e8f0" stroke-width="0.5"/>
  <rect x="12" y="88" width="80" height="2" rx="1" fill="#e2e8f0"/>
  <rect x="160" y="88" width="28" height="2" rx="1" fill="#1e293b"/>
  <line x1="8" y1="94" x2="192" y2="94" stroke="#e2e8f0" stroke-width="0.5"/>
  <rect x="12" y="98" width="90" height="2" rx="1" fill="#e2e8f0"/>
  <rect x="160" y="98" width="28" height="2" rx="1" fill="#1e293b"/>
  <line x1="8" y1="104" x2="192" y2="104" stroke="#1e293b" stroke-width="0.5"/>
  <rect x="120" y="110" width="68" height="3" rx="1" fill="#1e293b"/>
  <rect x="120" y="118" width="50" height="2" rx="1" fill="#64748b"/>
</svg>
