<svg width="200" height="260" viewBox="0 0 200 260" fill="none" xmlns="http://www.w3.org/2000/svg">
  <rect width="200" height="260" fill="white"/>
  <rect width="200" height="50" fill="#1e3a5f"/>
  <rect x="16" y="14" width="50" height="10" rx="2" fill="white" fill-opacity="0.9"/>
  <rect x="130" y="14" width="54" height="6" rx="1" fill="white" fill-opacity="0.7"/>
  <rect x="130" y="24" width="40" height="4" rx="1" fill="white" fill-opacity="0.5"/>
  <!-- Employee details row -->
  <rect x="16" y="58" width="168" height="18" rx="2" fill="#f8fafc"/>
  <rect x="22" y="62" width="50" height="4" rx="1" fill="#e2e8f0"/>
  <rect x="22" y="69" width="36" height="3" rx="1" fill="#f1f5f9"/>
  <rect x="108" y="62" width="50" height="4" rx="1" fill="#e2e8f0"/>
  <rect x="108" y="69" width="36" height="3" rx="1" fill="#f1f5f9"/>
  <!-- Two column earnings/deductions -->
  <rect x="16" y="84" width="76" height="3" rx="1" fill="#94a3b8"/>
  <rect x="108" y="84" width="76" height="3" rx="1" fill="#94a3b8"/>
  <rect x="16" y="91" width="76" height="3" rx="1" fill="#f1f5f9"/>
  <rect x="108" y="91" width="76" height="3" rx="1" fill="#f1f5f9"/>
  <rect x="16" y="97" width="76" height="3" rx="1" fill="#f1f5f9"/>
  <rect x="108" y="97" width="76" height="3" rx="1" fill="#f1f5f9"/>
  <rect x="16" y="103" width="76" height="3" rx="1" fill="#f1f5f9"/>
  <rect x="108" y="103" width="76" height="3" rx="1" fill="#f1f5f9"/>
  <rect x="16" y="115" width="168" height="1" fill="#e2e8f0"/>
  <rect x="110" y="150" width="74" height="4" rx="1" fill="#e2e8f0"/>
  <rect x="130" y="160" width="54" height="8" rx="2" fill="#1e3a5f"/>
</svg>
