<svg width="200" height="260" viewBox="0 0 200 260" fill="none" xmlns="http://www.w3.org/2000/svg">
  <rect width="200" height="260" fill="white"/>
  <rect width="200" height="50" fill="#475569"/>
  <rect x="16" y="14" width="50" height="10" rx="2" fill="white" fill-opacity="0.9"/>
  <rect x="130" y="14" width="54" height="6" rx="1" fill="white" fill-opacity="0.7"/>
  <rect x="130" y="24" width="40" height="4" rx="1" fill="white" fill-opacity="0.5"/>
  <!-- Truck icon area -->
  <rect x="76" y="16" width="24" height="18" rx="2" fill="white" fill-opacity="0.2"/>
  <rect x="66" y="24" width="12" height="10" rx="1" fill="white" fill-opacity="0.15"/>
  <rect x="16" y="58" width="80" height="4" rx="1" fill="#e2e8f0"/>
  <rect x="16" y="65" width="168" height="1" fill="#e2e8f0"/>
  <!-- Two-column delivery details -->
  <rect x="16" y="74" width="76" height="3" rx="1" fill="#f1f5f9"/>
  <rect x="108" y="74" width="76" height="3" rx="1" fill="#f1f5f9"/>
  <rect x="16" y="80" width="60" height="3" rx="1" fill="#f8fafc"/>
  <rect x="108" y="80" width="60" height="3" rx="1" fill="#f8fafc"/>
  <rect x="16" y="98" width="168" height="3" rx="1" fill="#f8fafc"/>
  <rect x="16" y="104" width="168" height="3" rx="1" fill="#f8fafc"/>
  <rect x="16" y="110" width="168" height="3" rx="1" fill="#f8fafc"/>
  <rect x="110" y="150" width="74" height="4" rx="1" fill="#e2e8f0"/>
  <rect x="130" y="160" width="54" height="8" rx="2" fill="#475569"/>
</svg>
