<svg width="200" height="260" viewBox="0 0 200 260" fill="none" xmlns="http://www.w3.org/2000/svg">
  <rect width="200" height="260" fill="#0f172a"/>
  <!-- Gold top accent -->
  <rect width="200" height="4" fill="#d97706"/>
  <rect x="16" y="16" width="60" height="10" rx="2" fill="#fef3c7" fill-opacity="0.9"/>
  <rect x="130" y="16" width="54" height="6" rx="1" fill="#fef3c7" fill-opacity="0.7"/>
  <rect x="130" y="26" width="40" height="4" rx="1" fill="#fef3c7" fill-opacity="0.5"/>
  <rect x="16" y="38" width="168" height="1" fill="#d97706" fill-opacity="0.4"/>
  <!-- Employee card -->
  <rect x="16" y="46" width="168" height="20" rx="2" fill="#1e293b"/>
  <rect x="22" y="50" width="50" height="4" rx="1" fill="#fde68a" fill-opacity="0.7"/>
  <rect x="22" y="57" width="36" height="3" rx="1" fill="#94a3b8"/>
  <rect x="108" y="50" width="50" height="4" rx="1" fill="#fde68a" fill-opacity="0.7"/>
  <rect x="108" y="57" width="36" height="3" rx="1" fill="#94a3b8"/>
  <!-- Earnings/deductions -->
  <rect x="16" y="76" width="76" height="3" rx="1" fill="#d97706" fill-opacity="0.7"/>
  <rect x="108" y="76" width="76" height="3" rx="1" fill="#d97706" fill-opacity="0.7"/>
  <rect x="16" y="83" width="76" height="3" rx="1" fill="#334155"/>
  <rect x="108" y="83" width="76" height="3" rx="1" fill="#334155"/>
  <rect x="16" y="89" width="76" height="3" rx="1" fill="#334155"/>
  <rect x="108" y="89" width="76" height="3" rx="1" fill="#334155"/>
  <rect x="16" y="95" width="76" height="3" rx="1" fill="#334155"/>
  <rect x="108" y="95" width="76" height="3" rx="1" fill="#334155"/>
  <rect x="16" y="108" width="168" height="1" fill="#d97706" fill-opacity="0.3"/>
  <!-- Net pay highlight -->
  <rect x="110" y="145" width="74" height="4" rx="1" fill="#475569"/>
  <rect x="110" y="154" width="74" height="14" rx="2" fill="#d97706"/>
  <rect x="118" y="158" width="50" height="6" rx="1" fill="white" fill-opacity="0.9"/>
</svg>
