<svg width="200" height="260" viewBox="0 0 200 260" fill="none" xmlns="http://www.w3.org/2000/svg">
  <rect width="200" height="260" fill="white"/>
  <rect width="200" height="260" fill="linear-gradient(180deg, white, #faf5ff)" />
  <rect x="16" y="16" width="16" height="16" rx="8" fill="#7c3aed"/>
  <rect x="38" y="16" width="80" height="5" rx="1" fill="#0f172a"/>
  <rect x="38" y="25" width="50" height="3" rx="1" fill="#a78bfa"/>
  <rect x="140" y="16" width="44" height="4" rx="1" fill="#94a3b8"/>
  <rect x="140" y="24" width="30" height="3" rx="1" fill="#94a3b8"/>
  <rect x="16" y="44" width="80" height="24" rx="4" fill="#7c3aed" fill-opacity="0.1"/>
  <rect x="24" y="50" width="30" height="2" rx="1" fill="#7c3aed"/>
  <rect x="24" y="56" width="50" height="5" rx="1" fill="#0f172a"/>
  <rect x="110" y="44" width="74" height="24" rx="4" fill="#f1f5f9"/>
  <rect x="118" y="50" width="30" height="2" rx="1" fill="#94a3b8"/>
  <rect x="118" y="56" width="50" height="5" rx="1" fill="#0f172a"/>
  <rect x="16" y="78" width="80" height="2" rx="1" fill="#e2e8f0"/>
  <rect x="16" y="84" width="80" height="2" rx="1" fill="#f1f5f9"/>
  <rect x="110" y="78" width="74" height="2" rx="1" fill="#e2e8f0"/>
  <rect x="110" y="84" width="74" height="2" rx="1" fill="#f1f5f9"/>
</svg>
