<svg width="200" height="260" viewBox="0 0 200 260" fill="none" xmlns="http://www.w3.org/2000/svg">
  <rect width="200" height="260" fill="white"/>
  <rect width="200" height="60" fill="#78350f"/>
  <!-- Gold accent bar -->
  <rect width="200" height="4" fill="#d97706"/>
  <rect x="16" y="16" width="50" height="10" rx="2" fill="#fef3c7" fill-opacity="0.9"/>
  <rect x="130" y="16" width="54" height="6" rx="1" fill="#fef3c7" fill-opacity="0.7"/>
  <rect x="130" y="26" width="40" height="4" rx="1" fill="#fef3c7" fill-opacity="0.5"/>
  <!-- Decorative diamond -->
  <rect x="93" y="38" width="14" height="14" rx="1" fill="#d97706" fill-opacity="0.6" transform="rotate(45 100 45)"/>
  <rect x="16" y="74" width="80" height="4" rx="1" fill="#fde68a"/>
  <rect x="16" y="81" width="60" height="3" rx="1" fill="#fef9f0"/>
  <rect x="16" y="96" width="168" height="1" fill="#fde68a"/>
  <rect x="16" y="106" width="168" height="3" rx="1" fill="#fef9f0"/>
  <rect x="16" y="112" width="168" height="3" rx="1" fill="#fef9f0"/>
  <rect x="16" y="118" width="168" height="3" rx="1" fill="#fef9f0"/>
  <rect x="110" y="150" width="74" height="4" rx="1" fill="#fde68a"/>
  <rect x="130" y="160" width="54" height="8" rx="2" fill="#d97706"/>
</svg>
