<svg width="200" height="260" viewBox="0 0 200 260" fill="none" xmlns="http://www.w3.org/2000/svg">
  <rect width="200" height="260" fill="white"/>
  <rect width="200" height="60" fill="#1e293b"/>
  <rect x="16" y="14" width="50" height="10" rx="2" fill="white" fill-opacity="0.9"/>
  <rect x="130" y="14" width="54" height="6" rx="1" fill="white" fill-opacity="0.7"/>
  <rect x="130" y="24" width="40" height="4" rx="1" fill="white" fill-opacity="0.5"/>
  <!-- Route line -->
  <circle cx="36" cy="44" r="4" fill="#f59e0b" fill-opacity="0.8"/>
  <rect x="42" y="43" width="50" height="2" fill="white" fill-opacity="0.3"/>
  <circle cx="96" cy="44" r="3" fill="white" fill-opacity="0.4"/>
  <rect x="101" y="43" width="30" height="2" fill="white" fill-opacity="0.3"/>
  <circle cx="134" cy="44" r="4" fill="#22c55e" fill-opacity="0.8"/>
  <rect x="16" y="74" width="80" height="4" rx="1" fill="#e2e8f0"/>
  <rect x="16" y="88" width="168" height="1" fill="#e2e8f0"/>
  <rect x="16" y="98" width="168" height="3" rx="1" fill="#f8fafc"/>
  <rect x="16" y="104" width="168" height="3" rx="1" fill="#f8fafc"/>
  <rect x="16" y="110" width="168" height="3" rx="1" fill="#f8fafc"/>
  <rect x="110" y="150" width="74" height="4" rx="1" fill="#e2e8f0"/>
  <rect x="130" y="160" width="54" height="8" rx="2" fill="#1e293b"/>
</svg>
