<svg width="200" height="260" viewBox="0 0 200 260" fill="none" xmlns="http://www.w3.org/2000/svg">
  <rect width="200" height="260" fill="white"/>
  <rect x="8" y="0" width="184" height="260" stroke="#e2e8f0" fill="none"/>
  <rect x="8" y="0" width="184" height="4" fill="#f59e0b"/>
  <rect x="16" y="14" width="16" height="16" rx="4" fill="#fef3c7"/>
  <rect x="38" y="14" width="60" height="4" rx="1" fill="#0f172a"/>
  <rect x="38" y="22" width="40" height="3" rx="1" fill="#94a3b8"/>
  <rect x="130" y="16" width="54" height="3" rx="1" fill="#94a3b8"/>
  <rect x="16" y="38" width="168" height="1" fill="#e2e8f0"/>
  <rect x="16" y="44" width="160" height="2" rx="1" fill="#94a3b8"/>
  <rect x="16" y="52" width="168" height="1" stroke="#e2e8f0" stroke-dasharray="2 2"/>
  <rect x="16" y="58" width="80" height="2" rx="1" fill="#94a3b8"/>
  <rect x="150" y="58" width="34" height="2" rx="1" fill="#0f172a"/>
  <rect x="16" y="66" width="70" height="2" rx="1" fill="#94a3b8"/>
  <rect x="150" y="66" width="34" height="2" rx="1" fill="#0f172a"/>
  <rect x="16" y="74" width="90" height="2" rx="1" fill="#94a3b8"/>
  <rect x="150" y="74" width="34" height="2" rx="1" fill="#0f172a"/>
  <rect x="16" y="84" width="168" height="1" fill="#0f172a"/>
  <rect x="16" y="90" width="40" height="2" rx="1" fill="#94a3b8"/>
  <rect x="130" y="88" width="54" height="5" rx="1" fill="#f59e0b"/>
</svg>
