<svg width="200" height="260" viewBox="0 0 200 260" fill="none" xmlns="http://www.w3.org/2000/svg">
  <rect width="200" height="260" fill="white"/>
  <rect width="200" height="50" fill="#0ea5e9"/>
  <rect x="16" y="14" width="50" height="10" rx="2" fill="white" fill-opacity="0.95"/>
  <rect x="130" y="14" width="54" height="6" rx="1" fill="white" fill-opacity="0.7"/>
  <rect x="130" y="24" width="40" height="4" rx="1" fill="white" fill-opacity="0.5"/>
  <!-- Cross symbol -->
  <rect x="88" y="18" width="6" height="16" rx="1" fill="white" fill-opacity="0.9"/>
  <rect x="82" y="24" width="18" height="6" rx="1" fill="white" fill-opacity="0.9"/>
  <rect x="16" y="66" width="80" height="4" rx="1" fill="#bae6fd"/>
  <rect x="16" y="73" width="60" height="3" rx="1" fill="#f0f9ff"/>
  <rect x="16" y="88" width="168" height="1" fill="#e0f2fe"/>
  <rect x="16" y="98" width="168" height="3" rx="1" fill="#f0f9ff"/>
  <rect x="16" y="104" width="168" height="3" rx="1" fill="#f0f9ff"/>
  <rect x="16" y="110" width="168" height="3" rx="1" fill="#f0f9ff"/>
  <rect x="110" y="150" width="74" height="4" rx="1" fill="#bae6fd"/>
  <rect x="130" y="160" width="54" height="8" rx="2" fill="#0ea5e9"/>
</svg>
