<svg width="200" height="260" viewBox="0 0 200 260" fill="none" xmlns="http://www.w3.org/2000/svg">
  <rect width="200" height="260" fill="white"/>
  <rect x="16" y="16" width="60" height="8" rx="2" fill="#e2e8f0"/>
  <rect x="130" y="16" width="54" height="8" rx="2" fill="#e2e8f0"/>
  <rect x="16" y="32" width="40" height="4" rx="1" fill="#f1f5f9"/>
  <rect x="16" y="56" width="80" height="4" rx="1" fill="#e2e8f0"/>
  <rect x="16" y="64" width="60" height="3" rx="1" fill="#f1f5f9"/>
  <rect x="16" y="80" width="168" height="1" fill="#e2e8f0"/>
  <rect x="16" y="90" width="80" height="3" rx="1" fill="#f1f5f9"/>
  <rect x="16" y="96" width="168" height="3" rx="1" fill="#f8fafc"/>
  <rect x="16" y="102" width="168" height="3" rx="1" fill="#f8fafc"/>
  <rect x="16" y="108" width="168" height="3" rx="1" fill="#f8fafc"/>
  <rect x="16" y="130" width="80" height="3" rx="1" fill="#f1f5f9"/>
  <rect x="110" y="150" width="74" height="4" rx="1" fill="#e2e8f0"/>
  <rect x="130" y="160" width="54" height="8" rx="2" fill="#0f172a"/>
</svg>
