<svg width="200" height="260" viewBox="0 0 200 260" fill="none" xmlns="http://www.w3.org/2000/svg">
  <rect width="200" height="260" fill="white"/>
  <rect x="0" y="0" width="4" height="260" fill="#2563eb"/>
  <rect x="16" y="16" width="100" height="6" rx="1" fill="#0f172a"/>
  <rect x="16" y="26" width="50" height="3" rx="1" fill="#94a3b8"/>
  <rect x="150" y="16" width="36" height="12" rx="6" fill="#2563eb"/>
  <rect x="156" y="19" width="24" height="6" rx="3" fill="white"/>
  <rect x="16" y="42" width="70" height="2" rx="1" fill="#e2e8f0"/>
  <rect x="16" y="48" width="50" height="2" rx="1" fill="#f1f5f9"/>
  <rect x="110" y="42" width="70" height="2" rx="1" fill="#e2e8f0"/>
  <rect x="110" y="48" width="50" height="2" rx="1" fill="#f1f5f9"/>
  <rect x="16" y="62" width="170" height="24" rx="4" fill="#2563eb"/>
  <rect x="24" y="68" width="40" height="3" rx="1" fill="white" fill-opacity="0.6"/>
  <rect x="24" y="75" width="80" height="5" rx="1" fill="white"/>
  <rect x="16" y="96" width="170" height="2" rx="1" fill="#f1f5f9"/>
  <rect x="16" y="104" width="130" height="3" rx="1" fill="#0f172a"/>
  <rect x="160" y="104" width="26" height="3" rx="1" fill="#0f172a"/>
  <rect x="24" y="112" width="80" height="2" rx="1" fill="#94a3b8"/>
  <rect x="16" y="120" width="170" height="1" rx="0.5" fill="#e2e8f0"/>
  <rect x="16" y="126" width="120" height="3" rx="1" fill="#0f172a"/>
  <rect x="160" y="126" width="26" height="3" rx="1" fill="#0f172a"/>
  <rect x="24" y="134" width="70" height="2" rx="1" fill="#94a3b8"/>
  <rect x="140" y="150" width="46" height="2" rx="1" fill="#2563eb" fill-opacity="0.3"/>
  <rect x="140" y="156" width="46" height="4" rx="1" fill="#0f172a"/>
</svg>
