<svg width="200" height="260" viewBox="0 0 200 260" fill="none" xmlns="http://www.w3.org/2000/svg">
  <rect width="200" height="260" fill="white"/>
  <!-- Warm orange top accent -->
  <rect width="200" height="6" fill="#ea580c"/>
  <rect x="16" y="18" width="60" height="8" rx="2" fill="#fed7aa"/>
  <rect x="130" y="18" width="54" height="8" rx="2" fill="#fed7aa"/>
  <rect x="16" y="34" width="40" height="4" rx="1" fill="#fff7ed"/>
  <!-- Table info row -->
  <rect x="16" y="52" width="168" height="16" rx="2" fill="#fff7ed"/>
  <rect x="22" y="56" width="40" height="4" rx="1" fill="#fdba74"/>
  <rect x="80" y="56" width="40" height="4" rx="1" fill="#fdba74"/>
  <rect x="138" y="56" width="30" height="4" rx="1" fill="#fdba74"/>
  <rect x="16" y="78" width="168" height="1" fill="#fed7aa"/>
  <rect x="16" y="88" width="168" height="3" rx="1" fill="#fff7ed"/>
  <rect x="16" y="94" width="168" height="3" rx="1" fill="#fff7ed"/>
  <rect x="16" y="100" width="168" height="3" rx="1" fill="#fff7ed"/>
  <rect x="16" y="106" width="168" height="3" rx="1" fill="#fff7ed"/>
  <rect x="110" y="148" width="74" height="4" rx="1" fill="#fed7aa"/>
  <rect x="130" y="158" width="54" height="8" rx="2" fill="#ea580c"/>
</svg>
