<svg width="200" height="260" viewBox="0 0 200 260" fill="none" xmlns="http://www.w3.org/2000/svg">
  <rect width="200" height="260" fill="white"/>
  <rect x="8" y="8" width="184" height="244" rx="8" stroke="#e2e8f0" fill="none"/>
  <rect x="8" y="8" width="184" height="4" rx="2" fill="#06b6d4"/>
  <rect x="16" y="20" width="14" height="14" rx="4" fill="#cffafe"/>
  <rect x="36" y="20" width="60" height="4" rx="1" fill="#0f172a"/>
  <rect x="36" y="28" width="40" height="3" rx="1" fill="#06b6d4"/>
  <rect x="130" y="22" width="54" height="3" rx="1" fill="#94a3b8"/>
  <rect x="16" y="42" width="168" height="1" fill="#e2e8f0"/>
  <rect x="16" y="48" width="120" height="2" rx="1" fill="#94a3b8"/>
  <rect x="16" y="56" width="168" height="1" stroke="#e2e8f0" stroke-dasharray="3 2"/>
  <rect x="16" y="62" width="80" height="2" rx="1" fill="#94a3b8"/>
  <rect x="150" y="62" width="34" height="2" rx="1" fill="#0f172a"/>
  <rect x="16" y="70" width="60" height="2" rx="1" fill="#94a3b8"/>
  <rect x="150" y="70" width="34" height="2" rx="1" fill="#0f172a"/>
  <rect x="16" y="78" width="70" height="2" rx="1" fill="#94a3b8"/>
  <rect x="150" y="78" width="34" height="2" rx="1" fill="#0f172a"/>
  <rect x="16" y="88" width="168" height="1" fill="#0f172a"/>
  <rect x="130" y="94" width="54" height="5" rx="1" fill="#06b6d4"/>
</svg>
